{"title":"Blue Ruin (2013).DVDrip.XviD - Italian English.Ac3  5.1 - Sub.It","uid":11803753,"size":1595585551,"categoryP":"video","categoryS":"movies","magnet":"?xt=urn:btih:b1f36ad85cf1a1d32ff71d7ef5ad7d33641cf1c3&amp;dn=Blue+Ruin+%282013%29.DVDrip.XviD+-+Italian+English.Ac3++5.1+-+Sub.It&amp;tr=udp%3A%2F%2Ftracker.openbittorrent.com%3A80&amp;tr=udp%3A%2F%2Fopen.demonii.com%3A1337&amp;tr=udp%3A%2F%2Ftracker.coppersurfer.tk%3A6969&amp;tr=udp%3A%2F%2Fexodus.desync.com%3A6969","seeders":27,"leechers":5,"uploader":"robbyrs4","files":3,"time":1428505040,"description":"Blue Ruin (2013).DVDrip.XviD - Italian English.Ac3  5.1 - Sub.Ita.MIRCrew\n\n\n\n[center]\n\n[color=red][b][img]http://s19.postimg.org/9qdjr7p77/Original_release_2.png[/img]\n\n[u]NO FOUND ONLY ORIGINAL RELEASE[/u]\n\nBlue Ruin (2013)\n\n[img]http://i.imgur.com/Yg0UJDz.png[/img]\n\n\n[URL=http://www.imdb.com/title/tt2359024/][IMG]http://www.userlogos.org/files/logos/Sucka/imdb_new.png[/IMG][/URL]  \n\n[img]http://s19.postimg.org/vz5tzn42b/1_scheda.png[/img]\n\nTitolo originale \tBlue Ruin\nLingua originale \tinglese\nPaese di produzione \tStati Uniti\nAnno \t2013\nDurata \t90 min\nRapporto \t2.35 : 1\nGenere \tthriller\nRegia \tJeremy Saulnier\nSceneggiatura \tJeremy Saulnier\nCasa di produzione \tThe Lab of Madness, Film Science, Neighborhood Watch\nFotografia \tJeremy Saulnier\nMontaggio \tJulia Bloch\nMusiche \tBrooke Blair, Will Blair\n\n[img]http://s19.postimg.org/q8fnlww2b/1_cast.png[/img]\n\n\n    Macon Blair: Dwight\n    Devin Ratray: Ben Gaffney\n    Amy Hargreaves: Sam\n    Kevin Kolack: Teddy Cleland\n    Eve Plumb: Kris Cleland\n\n  \n[img]http://s19.postimg.org/okgi79i6r/1_trama.png[/img]. \n\nTre ragazze, una spogliarellista di nome Trixie, una ex-detenuta che fa uso di droga e portata all'omicidio di nome Camero, e infine una ragazza che lavora per una grossa corporazione con soprannome Hel, arrivano in un remoto angolo del deserto dove si trova un nascondiglio con dei beni trafugati a uno spietato assassino armato di spada di nome Pinky, nota figura della malavita.........\n\n[img]http://s19.postimg.org/fzn6g380j/1_story.png[/img]\n\n\nA mysterious outsider's quiet life is turned upside down when he returns to his childhood home to carry out an act of vengeance. Proving himself an amateur assassin, he winds up in a brutal fight to protect his estranged family..........\n &lt;a href=&quot;\nhttp://extraimago.com/images/2015/04/08/vlcsnap-2015-04-08-14h53m37s253.png[/img]&quot; rel=&quot;nofollow&quot; target=&quot;_NEW&quot;&gt;\nhttp://extraimago.com/images/2015/04/08/vlcsnap-2015-04-08-14h53m37s253.png[/img]&lt;/a&gt; &lt;a href=&quot;\nhttp://extraimago.com/images/2015/04/08/vlcsnap-2015-04-08-14h53m45s89.png[/img]&quot; rel=&quot;nofollow&quot; target=&quot;_NEW&quot;&gt;\nhttp://extraimago.com/images/2015/04/08/vlcsnap-2015-04-08-14h53m45s89.png[/img]&lt;/a&gt; &lt;a href=&quot;\nhttp://extraimago.com/images/2015/04/08/vlcsnap-2015-04-08-14h54m02s238.png[/img]&quot; rel=&quot;nofollow&quot; target=&quot;_NEW&quot;&gt;\nhttp://extraimago.com/images/2015/04/08/vlcsnap-2015-04-08-14h54m02s238.png[/img]&lt;/a&gt;\n\n[IMG]http://img153.imageshack.us/img153/3158/restateinseedblood.gif[/img]\n\n\n[img]http://imgur.com/lvhU6.gif[/img]\n\n\n[img]http://s19.postimg.org/a2jaz9qvn/1_dati.png[/img]\n\n\n[spoiler]\nGeneral\nComplete name                            : Blue Ruin (2013).ita.eng.sub.ita.MIRCrewBlue Ruin (2014).ita.eng.sub.ita.MIRCrew.avi\nFormat                                   : AVI\nFormat/Info                              : Audio Video Interleave\nFile size                                : 1.48 GiB\nDuration                                 : 1h 26mn\nOverall bit rate                         : 2 454 Kbps\nWriting application                      : VirtualDubMod 1.5.4.1 (build 2178/release)\nWriting library                          : VirtualDubMod build 2178/release\n\nVideo\nID                                       : 0\nFormat                                   : MPEG-4 Visual\nFormat profile                           : Advanced Simple@L5\nFormat settings, BVOP                    : No\nFormat settings, QPel                    : No\nFormat settings, GMC                     : No warppoints\nFormat settings, Matrix                  : Custom\nCodec ID                                 : XVID\nCodec ID/Hint                            : XviD\nDuration                                 : 1h 26mn\nBit rate                                 : 1 549 Kbps\nWidth                                    : 720 pixels\nHeight                                   : 304 pixels\nDisplay aspect ratio                     : 2.35:1\nFrame rate                               : 25.000 fps\nColor space                              : YUV\nChroma subsampling                       : 4:2:0\nBit depth                                : 8 bits\nScan type                                : Progressive\nCompression mode                         : Lossy\nBits/(Pixel*Frame)                       : 0.283\nStream size                              : 959 MiB (63%)\nWriting library                          : XviD 64\n\nAudio #1\nID                                       : 1\nFormat                                   : AC-3\nFormat/Info                              : Audio Coding 3\nMode extension                           : CM (complete main)\nCodec ID                                 : 2000\nDuration                                 : 1h 26mn\nBit rate mode                            : Constant\nBit rate                                 : 448 Kbps\nChannel(s)                               : 6 channels\nChannel positions                        : Front: L C R, Side: L R, LFE\nSampling rate                            : 48.0 KHz\nBit depth                                : 16 bits\nCompression mode                         : Lossy\nStream size                              : 277 MiB (18%)\nAlignment                                : Split accross interleaves\nInterleave, duration                     : 96 ms (2.40 video frames)\nInterleave, preload duration             : 96 ms\nLanguage                                 : Italian\n\nAudio #2\nID                                       : 2\nFormat                                   : AC-3\nFormat/Info                              : Audio Coding 3\nMode extension                           : CM (complete main)\nCodec ID                                 : 2000\nDuration                                 : 1h 26mn\nBit rate mode                            : Constant\nBit rate                                 : 448 Kbps\nChannel(s)                               : 6 channels\nChannel positions                        : Front: L C R, Side: L R, LFE\nSampling rate                            : 48.0 KHz\nBit depth                                : 16 bits\nCompression mode                         : Lossy\nStream size                              : 277 MiB (18%)\nAlignment                                : Split accross interleaves\nInterleave, duration                     : 96 ms (2.40 video frames)\nInterleave, preload duration             : 96 ms\nLanguage                                 : English\n\n\n[/spoiler]\n\n[/color][/b][/center]","torrent":{"xt":"urn:btih:b1f36ad85cf1a1d32ff71d7ef5ad7d33641cf1c3","amp;dn":"Blue+Ruin+%282013%29.DVDrip.XviD+-+Italian+English.Ac3++5.1+-+Sub.It","amp;tr":["udp%3A%2F%2Ftracker.openbittorrent.com%3A80","udp%3A%2F%2Fopen.demonii.com%3A1337","udp%3A%2F%2Ftracker.coppersurfer.tk%3A6969","udp%3A%2F%2Fexodus.desync.com%3A6969"],"infoHash":"b1f36ad85cf1a1d32ff71d7ef5ad7d33641cf1c3","infoHashBuffer":{"type":"Buffer","data":[177,243,106,216,92,241,161,211,47,247,29,126,245,173,125,51,100,28,241,195]},"announce":[],"urlList":[]}}